# 3ds Max Wavefront OBJ Exporter v0.97b - (c)2007 guruware
# File Created: 10.03.2016 16:39:11

mtllib Chain1.mtl

#
# object Ketting
#

v  -1.8847 -5.8126 4.5499
v  -1.8847 -7.0722 0.0041
v  2.0523 -7.0722 0.0041
v  2.0523 -5.8126 4.5499
v  2.0523 6.9173 0.0041
v  -1.8847 6.9173 0.0041
v  -1.8847 6.0385 4.5499
v  2.0523 6.0385 4.5499
v  2.0523 -5.8126 -4.5417
v  -1.8847 -5.8126 -4.5417
v  -1.8847 6.0385 -4.5417
v  2.0523 6.0385 -4.5417
v  2.0523 -4.6059 0.0041
v  2.0523 -3.3462 2.2067
v  2.0523 3.5721 -2.1985
v  2.0523 -3.3462 -2.1985
v  2.0523 4.4509 0.0041
v  2.0523 3.5721 2.2067
v  -1.8847 -4.6059 0.0041
v  -1.8847 -3.3462 -2.1985
v  -1.8847 3.5721 2.2067
v  -1.8847 -3.3462 2.2067
v  -1.8847 4.4509 0.0041
v  -1.8847 3.5721 -2.1985
# 24 vertices

vn -0.5921 -0.4920 0.6383
vn -0.6540 -0.7565 0.0000
vn 0.6540 -0.7565 0.0000
vn 0.5921 -0.4920 0.6383
vn 0.6686 0.7436 0.0000
vn -0.6686 0.7436 0.0000
vn -0.5875 0.5179 0.6217
vn 0.5875 0.5179 0.6217
vn 0.5921 -0.4920 -0.6383
vn -0.5921 -0.4920 -0.6383
vn -0.5875 0.5179 -0.6217
vn 0.5875 0.5179 -0.6217
vn 0.8318 0.5550 0.0000
vn 0.8420 0.2757 -0.4636
vn 0.8596 -0.2903 0.4204
vn 0.8420 0.2757 0.4636
vn 0.7962 -0.6050 0.0000
vn 0.8596 -0.2903 -0.4204
vn -0.8318 0.5550 -0.0000
vn -0.8420 0.2757 0.4636
vn -0.8596 -0.2903 -0.4204
vn -0.8420 0.2757 -0.4636
vn -0.7962 -0.6050 -0.0000
vn -0.8596 -0.2903 0.4204
# 24 vertex normals

vt 1.0000 1.0000 0.0000
vt 0.5000 1.0000 0.0000
vt 0.5000 0.0000 0.0000
vt 1.0000 0.0000 0.0000
vt 0.0000 1.0000 0.0000
vt 0.0000 0.0000 0.0000
# 6 texture coords

g Ketting
usemtl 08___Default
s 1
f 1/1/1 2/2/2 3/3/3 4/4/4 
f 5/3/5 6/2/6 7/5/7 8/6/8 
f 9/6/9 10/4/10 11/1/11 12/5/12 
f 1/6/1 4/4/4 8/1/8 7/5/7 
f 3/3/3 13/3/13 14/6/14 4/6/4 
f 9/4/9 12/1/12 15/1/15 16/4/16 
f 5/2/5 17/2/17 15/1/15 12/1/12 
f 8/5/8 4/6/4 14/6/14 18/5/18 
f 2/3/2 19/3/19 20/6/20 10/6/10 
f 1/4/1 7/1/7 21/1/21 22/4/22 
f 6/2/6 23/2/23 21/1/21 7/1/7 
f 11/5/11 10/6/10 20/6/20 24/5/24 
f 14/6/14 22/4/22 21/1/21 18/5/18 
f 17/2/17 23/2/23 24/5/24 15/1/15 
f 15/1/15 24/5/24 20/6/20 16/4/16 
f 13/3/13 19/3/19 22/4/22 14/6/14 
f 10/5/10 9/6/9 3/3/3 2/2/2 
f 12/4/12 11/1/11 6/2/6 5/3/5 
f 3/3/3 9/4/9 16/4/16 13/3/13 
f 5/2/5 8/5/8 18/5/18 17/2/17 
f 2/3/2 1/4/1 22/4/22 19/3/19 
f 6/2/6 11/5/11 24/5/24 23/2/23 
f 18/5/18 21/1/21 23/2/23 17/2/17 
f 16/4/16 20/6/20 19/3/19 13/3/13 
# 24 polygons

