# 3ds Max Wavefront OBJ Exporter v0.97b - (c)2007 guruware
# File Created: 10.03.2016 13:48:54

mtllib Ketting1.mtl

#
# object Ketting
#

v  1.2560 88.5485 -12.3008
v  -0.2204 88.3173 -12.0445
v  -0.2204 86.3636 -13.7492
v  1.2560 86.6719 -13.8956
v  -1.6968 88.5485 -12.3008
v  -1.6968 86.6719 -13.8956
v  -1.6968 86.3570 -16.0221
v  -0.2204 86.0487 -16.0221
v  1.2560 86.3570 -16.0221
v  1.2560 97.2417 -12.3008
v  1.2560 98.9756 -13.8956
v  -0.2204 99.2839 -13.7492
v  -0.2204 97.4729 -12.0445
v  1.2560 99.1953 -16.0221
v  -0.2204 99.5036 -16.0221
v  -1.6968 99.1953 -16.0221
v  -1.6968 98.9756 -13.8956
v  -1.6968 97.2417 -12.3008
v  1.2560 88.5485 -19.7434
v  -0.2204 88.3173 -19.9997
v  -0.2204 92.9189 -20.5679
v  1.2560 92.9189 -20.2750
v  -1.6968 88.5485 -19.7434
v  -1.6968 92.9189 -20.2750
v  -1.6968 97.2417 -19.7434
v  -0.2204 97.4729 -19.9997
v  1.2560 97.2417 -19.7434
v  -0.2204 92.9189 -11.4763
v  -1.6968 92.9189 -11.7692
v  1.2560 92.9189 -11.7692
v  1.7481 87.5968 -14.3350
v  1.7481 89.2422 -13.0696
v  1.7481 87.2819 -16.0221
v  1.2560 88.2068 -16.0221
v  1.2560 88.5217 -14.7743
v  1.2560 89.9359 -13.8385
v  1.7481 92.9189 -19.3963
v  1.7481 89.2422 -18.9745
v  1.7481 96.5480 -18.9745
v  1.2560 95.8544 -18.2057
v  1.2560 92.9189 -18.5176
v  1.2560 89.9359 -18.2057
v  1.2560 98.9756 -18.1486
v  1.7481 98.0507 -17.7092
v  1.7481 98.2704 -16.0221
v  1.2560 97.3455 -16.0221
v  1.2560 97.1258 -17.2699
v  1.7481 92.9189 -12.6479
v  1.7481 96.5480 -13.0696
v  1.2560 92.9189 -13.5266
v  1.2560 95.8544 -13.8385
v  -1.6968 86.6719 -18.1486
v  -2.1889 87.5968 -17.7092
v  -2.1889 89.2422 -18.9745
v  -2.1889 87.2819 -16.0221
v  -1.6968 88.2068 -16.0221
v  -1.6968 88.5217 -17.2699
v  -1.6968 89.9359 -18.2057
v  -2.1889 92.9189 -12.6479
v  -2.1889 89.2422 -13.0696
v  -2.1889 96.5480 -13.0696
v  -1.6968 95.8544 -13.8385
v  -1.6968 92.9189 -13.5266
v  -1.6968 89.9359 -13.8385
v  -2.1889 98.0507 -14.3350
v  -2.1889 98.2704 -16.0221
v  -1.6968 97.3455 -16.0221
v  -1.6968 97.1258 -14.7743
v  -2.1889 92.9189 -19.3963
v  -2.1889 96.5480 -18.9745
v  -1.6968 92.9189 -18.5176
v  -1.6968 95.8544 -18.2057
v  -0.2204 92.9189 -13.8195
v  -0.2204 95.6231 -14.0948
v  -0.2204 90.1671 -14.0948
v  -0.2204 96.8175 -17.1234
v  -0.2204 95.6231 -17.9494
v  -0.2204 97.0372 -16.0221
v  -1.6968 97.1258 -17.2699
v  -0.2204 92.9189 -18.2247
v  -0.2204 90.1671 -17.9494
v  -0.2204 88.8300 -14.9208
v  -0.2204 88.5151 -16.0221
v  -1.6968 88.5217 -14.7743
v  -0.2204 86.3636 -18.2950
v  1.2560 86.6719 -18.1486
v  -0.2204 99.2839 -18.2950
v  -1.6968 98.9756 -18.1486
v  1.7481 87.5968 -17.7092
v  1.2560 88.5217 -17.2699
v  1.7481 98.0507 -14.3350
v  1.2560 97.1258 -14.7743
v  -2.1889 87.5968 -14.3350
v  -2.1889 98.0507 -17.7092
v  -0.2204 96.8175 -14.9208
v  -0.2204 88.8300 -17.1234
# 96 vertices

vn 0.5732 -0.3410 0.7451
vn -0.0000 -0.4322 0.9018
vn -0.0000 -0.8846 0.4663
vn 0.5728 -0.7231 0.3860
vn -0.5732 -0.3410 0.7451
vn -0.5728 -0.7231 0.3860
vn -0.5763 -0.8172 -0.0000
vn -0.0000 -1.0000 -0.0000
vn 0.5763 -0.8172 0.0000
vn 0.5729 0.3562 0.7382
vn 0.5727 0.7382 0.3564
vn 0.0000 0.9018 0.4322
vn 0.0000 0.4496 0.8932
vn 0.5796 0.8149 0.0000
vn 0.0000 1.0000 -0.0000
vn -0.5796 0.8149 0.0000
vn -0.5727 0.7382 0.3564
vn -0.5729 0.3562 0.7382
vn 0.5732 -0.3410 -0.7451
vn -0.0000 -0.4322 -0.9018
vn 0.0000 0.0007 -1.0000
vn 0.5719 0.0006 -0.8203
vn -0.5732 -0.3410 -0.7451
vn -0.5719 0.0006 -0.8203
vn -0.5729 0.3562 -0.7382
vn 0.0000 0.4496 -0.8932
vn 0.5729 0.3562 -0.7382
vn 0.0000 0.0007 1.0000
vn -0.5719 0.0006 0.8203
vn 0.5719 0.0006 0.8203
vn 0.9949 -0.0917 0.0416
vn 0.9958 -0.0089 0.0911
vn 0.9985 -0.0544 0.0000
vn 0.6318 0.7752 -0.0000
vn 0.6637 0.6131 -0.4285
vn 0.6338 0.2642 -0.7270
vn 0.9993 0.0000 -0.0371
vn 0.9958 -0.0089 -0.0911
vn 0.9953 0.0130 -0.0955
vn 0.6403 -0.2806 0.7150
vn 0.6020 -0.0007 0.7985
vn 0.6338 0.2642 0.7270
vn 0.5727 0.7382 -0.3564
vn 0.9947 0.0959 -0.0362
vn 0.9993 0.0382 0.0000
vn 0.6183 -0.7859 0.0000
vn 0.6675 -0.6367 0.3861
vn 0.9993 0.0000 0.0371
vn 0.9953 0.0130 0.0955
vn 0.6020 -0.0007 -0.7985
vn 0.6403 -0.2806 -0.7150
vn -0.5728 -0.7231 -0.3860
vn -0.9949 -0.0917 -0.0416
vn -0.9958 -0.0089 -0.0911
vn -0.9985 -0.0544 -0.0000
vn -0.6318 0.7752 -0.0000
vn -0.6637 0.6131 0.4285
vn -0.6338 0.2642 0.7270
vn -0.9993 0.0000 0.0371
vn -0.9958 -0.0089 0.0911
vn -0.9953 0.0130 0.0955
vn -0.6403 -0.2806 -0.7150
vn -0.6020 -0.0007 -0.7985
vn -0.6338 0.2642 -0.7270
vn -0.9947 0.0959 0.0362
vn -0.9993 0.0382 -0.0000
vn -0.6183 -0.7859 -0.0000
vn -0.6675 -0.6367 -0.3861
vn -0.9993 0.0000 -0.0371
vn -0.9953 0.0130 -0.0955
vn -0.6020 -0.0007 0.7985
vn -0.6403 -0.2806 0.7150
vn -0.0000 -0.0009 -1.0000
vn 0.0000 -0.3477 -0.9376
vn -0.0000 0.3224 -0.9466
vn 0.0000 -0.8491 0.5283
vn -0.0000 -0.3477 0.9376
vn 0.0000 -1.0000 0.0000
vn -0.6675 -0.6367 0.3861
vn -0.0000 -0.0009 1.0000
vn 0.0000 0.3224 0.9466
vn -0.0000 0.8126 -0.5828
vn -0.0000 1.0000 0.0000
vn -0.6637 0.6131 -0.4285
vn -0.0000 -0.8846 -0.4663
vn 0.5728 -0.7231 -0.3860
vn -0.0000 0.9018 -0.4322
vn -0.5727 0.7382 -0.3564
vn 0.9949 -0.0917 -0.0416
vn 0.6637 0.6131 0.4285
vn 0.9947 0.0959 0.0362
vn 0.6675 -0.6367 -0.3861
vn -0.9949 -0.0917 0.0416
vn -0.9947 0.0959 -0.0362
vn 0.0000 -0.8491 -0.5283
vn 0.0000 0.8126 0.5828
# 96 vertex normals

vt 1.0000 0.0000 0.0000
vt 1.0000 0.5000 0.0000
vt 0.7500 0.5000 0.0000
vt 0.7500 0.0000 0.0000
vt 1.0000 1.0000 0.0000
vt 0.7500 1.0000 0.0000
vt 0.5000 1.0000 0.0000
vt 0.5000 0.5000 0.0000
vt 0.5000 0.0000 0.0000
vt 0.0000 0.0000 0.0000
vt 0.2500 0.0000 0.0000
vt 0.2500 0.5000 0.0000
vt 0.0000 0.5000 0.0000
vt 0.2500 1.0000 0.0000
vt 0.0000 1.0000 0.0000
vt 0.0625 0.1250 0.0000
vt 0.3125 0.0000 0.0000
vt 0.1719 0.1250 0.0000
vt 0.9375 0.1250 0.0000
vt 0.9375 0.8750 0.0000
vt 0.8281 0.8750 0.0000
vt 0.8750 0.5000 0.0000
vt 0.8281 0.1250 0.0000
vt 0.6875 1.0000 0.0000
vt 0.0625 0.8750 0.0000
vt 0.1250 0.5000 0.0000
vt 0.1719 0.8750 0.0000
vt 0.5000 0.8750 0.0000
vt 0.5000 0.1250 0.0000
vt 0.3125 1.0000 0.0000
vt 0.6875 0.0000 0.0000
# 31 texture coords

g Ketting
usemtl 08___Default
s 1
f 1/1/1 2/2/2 3/3/3 4/4/4 
f 5/5/5 6/6/6 3/3/3 2/2/2 
f 7/7/7 8/8/8 3/3/3 6/6/6 
f 9/9/9 4/4/4 3/3/3 8/8/8 
f 10/10/10 11/11/11 12/12/12 13/13/13 
f 14/9/14 15/8/15 12/12/12 11/11/11 
f 16/7/16 17/14/17 12/12/12 15/8/15 
f 18/15/18 13/13/13 12/12/12 17/14/17 
f 19/10/19 20/9/20 21/8/21 22/13/22 
f 23/1/23 24/2/24 21/8/21 20/9/20 
f 25/5/25 26/7/26 21/8/21 24/2/24 
f 27/15/27 22/13/22 21/8/21 26/7/26 
f 5/10/5 2/9/2 28/8/28 29/13/29 
f 1/1/1 30/2/30 28/8/28 2/9/2 
f 10/5/10 13/7/13 28/8/28 30/2/30 
f 18/15/18 29/13/29 28/8/28 13/7/13 
f 1/10/1 4/11/4 31/11/31 32/16/32 
f 9/9/9 33/9/33 31/11/31 4/11/4 
f 34/9/34 35/17/35 31/11/31 33/9/33 
f 36/18/36 32/16/32 31/11/31 35/17/35 
f 19/1/19 22/2/22 37/2/37 38/19/38 
f 27/5/27 39/20/39 37/2/37 22/2/22 
f 40/21/40 41/22/41 37/2/37 39/20/39 
f 42/23/42 38/19/38 37/2/37 41/22/41 
f 27/5/27 43/6/43 44/6/44 39/20/39 
f 14/7/14 45/7/45 44/6/44 43/6/43 
f 46/7/46 47/24/47 44/6/44 45/7/45 
f 40/21/40 39/20/39 44/6/44 47/24/47 
f 10/15/10 30/13/30 48/13/48 49/25/49 
f 1/10/1 32/16/32 48/13/48 30/13/30 
f 36/18/36 50/26/50 48/13/48 32/16/32 
f 51/27/51 49/25/49 48/13/48 50/26/50 
f 23/10/23 52/11/52 53/11/53 54/16/54 
f 7/9/7 55/9/55 53/11/53 52/11/52 
f 56/9/56 57/17/57 53/11/53 55/9/55 
f 58/18/58 54/16/54 53/11/53 57/17/57 
f 5/1/5 29/2/29 59/2/59 60/19/60 
f 18/5/18 61/20/61 59/2/59 29/2/29 
f 62/21/62 63/22/63 59/2/59 61/20/61 
f 64/23/64 60/19/60 59/2/59 63/22/63 
f 18/5/18 17/6/17 65/6/65 61/20/61 
f 16/7/16 66/7/66 65/6/65 17/6/17 
f 67/7/67 68/24/68 65/6/65 66/7/66 
f 62/21/62 61/20/61 65/6/65 68/24/68 
f 25/15/25 24/13/24 69/13/69 70/25/70 
f 23/10/23 54/16/54 69/13/69 24/13/24 
f 58/18/58 71/26/71 69/13/69 54/16/54 
f 72/27/72 70/25/70 69/13/69 71/26/71 
f 51/27/51 50/26/50 73/8/73 74/28/74 
f 36/18/36 75/29/75 73/8/73 50/26/50 
f 64/23/64 63/22/63 73/8/73 75/29/75 
f 62/21/62 74/28/74 73/8/73 63/22/63 
f 40/21/40 47/24/47 76/7/76 77/28/77 
f 46/7/46 78/7/78 76/7/76 47/24/47 
f 67/7/67 79/30/79 76/7/76 78/7/78 
f 72/27/72 77/28/77 76/7/76 79/30/79 
f 42/23/42 41/22/41 80/8/80 81/29/81 
f 40/21/40 77/28/77 80/8/80 41/22/41 
f 72/27/72 71/26/71 80/8/80 77/28/77 
f 58/18/58 81/29/81 80/8/80 71/26/71 
f 36/18/36 35/17/35 82/9/82 75/29/75 
f 34/9/34 83/9/83 82/9/82 35/17/35 
f 56/9/56 84/31/84 82/9/82 83/9/83 
f 64/23/64 75/29/75 82/9/82 84/31/84 
f 7/7/7 52/14/52 85/12/85 8/8/8 
f 23/15/23 20/13/20 85/12/85 52/14/52 
f 19/10/19 86/11/86 85/12/85 20/13/20 
f 9/9/9 8/8/8 85/12/85 86/11/86 
f 14/9/14 43/4/43 87/3/87 15/8/15 
f 27/1/27 26/2/26 87/3/87 43/4/43 
f 25/5/25 88/6/88 87/3/87 26/2/26 
f 16/7/16 15/8/15 87/3/87 88/6/88 
f 9/9/9 86/4/86 89/4/89 33/9/33 
f 19/1/19 38/19/38 89/4/89 86/4/86 
f 42/23/42 90/31/90 89/4/89 38/19/38 
f 34/9/34 33/9/33 89/4/89 90/31/90 
f 14/7/14 11/14/11 91/14/91 45/7/45 
f 10/15/10 49/25/49 91/14/91 11/14/11 
f 51/27/51 92/30/92 91/14/91 49/25/49 
f 46/7/46 45/7/45 91/14/91 92/30/92 
f 7/9/7 6/4/6 93/4/93 55/9/55 
f 5/1/5 60/19/60 93/4/93 6/4/6 
f 64/23/64 84/31/84 93/4/93 60/19/60 
f 56/9/56 55/9/55 93/4/93 84/31/84 
f 16/7/16 88/14/88 94/14/94 66/7/66 
f 25/15/25 70/25/70 94/14/94 88/14/88 
f 72/27/72 79/30/79 94/14/94 70/25/70 
f 67/7/67 66/7/66 94/14/94 79/30/79 
f 46/7/46 92/30/92 95/7/95 78/7/78 
f 51/27/51 74/28/74 95/7/95 92/30/92 
f 62/21/62 68/24/68 95/7/95 74/28/74 
f 67/7/67 78/7/78 95/7/95 68/24/68 
f 34/9/34 90/31/90 96/9/96 83/9/83 
f 42/23/42 81/29/81 96/9/96 90/31/90 
f 58/18/58 57/17/57 96/9/96 81/29/81 
f 56/9/56 83/9/83 96/9/96 57/17/57 
# 96 polygons

