# 3ds Max Wavefront OBJ Exporter v0.97b - (c)2007 guruware
# File Created: 09.03.2016 10:10:18

mtllib PopCornBox.mtl

#
# object Box
#

v  -13.8186 0.6510 9.1726
v  -13.8186 0.6510 -17.2919
v  -14.2051 0.6510 -18.7932
v  -13.4031 0.6510 -18.9396
v  14.7165 0.6510 -18.9396
v  15.5185 0.6510 -18.7932
v  15.1320 0.6510 -17.2919
v  14.7165 0.6510 10.8204
v  15.1320 0.6510 9.1726
v  15.5185 0.6510 10.6739
v  -14.2051 0.6510 10.6739
v  -13.4031 0.6510 10.8204
v  -17.7563 67.3882 14.9302
v  19.0696 67.3882 14.9302
v  19.8904 67.3882 14.7978
v  19.6501 67.3882 13.4023
v  19.6501 67.3882 -21.5215
v  19.8904 67.3882 -22.9171
v  19.0696 67.3882 -23.0494
v  -18.3367 67.3882 -21.5215
v  -17.7563 67.3882 -23.0494
v  -18.5770 67.3882 -22.9171
v  -18.5770 67.3882 14.7978
v  -18.3367 67.3882 13.4023
v  -14.0959 4.2814 12.8543
v  15.4093 4.2814 12.8543
v  19.2699 65.7282 17.1104
v  -17.9565 65.7282 17.1104
v  18.1517 4.2814 9.4919
v  18.1517 4.2814 -17.6112
v  22.0123 65.7282 -21.8673
v  22.0123 65.7282 13.7481
v  15.4093 4.2814 -20.9735
v  -14.0959 4.2814 -20.9735
v  -17.9565 65.7282 -25.2297
v  19.2699 65.7282 -25.2297
v  -16.8383 4.2814 -17.6112
v  -16.8384 4.2814 9.4919
v  -20.6989 65.7282 13.7481
v  -20.6989 65.7282 -21.8673
v  21.3267 65.7282 16.2699
v  17.4661 4.2814 12.0137
v  -16.1527 4.2814 12.0137
v  -20.0133 65.7282 16.2699
v  21.3267 65.7282 -24.3891
v  17.4661 4.2814 -20.1329
v  -20.0133 65.7282 -24.3891
v  -16.1527 4.2814 -20.1329
v  -15.9694 1.5586 -17.5313
v  -15.9694 1.5586 9.4121
v  15.1220 1.5586 -20.4650
v  -13.8087 1.5586 -20.4650
v  17.2827 1.5586 9.4121
v  17.2827 1.5586 -17.5313
v  -13.8087 1.5586 12.3458
v  15.1221 1.5586 12.3458
v  -15.5518 1.5586 11.6787
v  16.8652 1.5586 11.6787
v  -15.5518 1.5586 -19.7980
v  16.8652 1.5586 -19.7980
v  19.2822 68.9552 16.1414
v  19.0696 69.3585 14.9302
v  -17.7563 69.3585 14.9302
v  -17.9689 68.9552 16.1414
v  21.0638 68.9552 -21.7136
v  19.6501 69.3585 -21.5215
v  19.6501 69.3585 13.4023
v  21.0638 68.9552 13.5944
v  -17.9689 68.9552 -24.2607
v  -17.7563 69.3585 -23.0494
v  19.0696 69.3585 -23.0494
v  19.2822 68.9552 -24.2607
v  -19.7504 68.9552 13.5944
v  -18.3367 69.3585 13.4023
v  -18.3367 69.3585 -21.5215
v  -19.7504 68.9552 -21.7136
v  -19.9551 67.7450 16.1063
v  -18.0356 67.7450 16.8682
v  21.2685 67.7450 16.1063
v  21.8512 67.7450 13.7097
v  -19.9551 67.7450 -24.2255
v  -20.5378 67.7450 -21.8289
v  21.2685 67.7450 -24.2255
v  19.3490 67.7450 -24.9874
v  -20.5378 67.7450 13.7097
v  19.3490 67.7450 16.8682
v  -18.0356 67.7450 -24.9874
v  21.8512 67.7450 -21.8289
v  -19.4763 68.9552 15.6156
v  -18.5770 69.3585 14.7978
v  20.7897 68.9552 15.6156
v  19.8904 69.3585 14.7978
v  -19.4763 68.9552 -23.7349
v  -18.5770 69.3585 -22.9171
v  20.7897 68.9552 -23.7349
v  19.8904 69.3585 -22.9171
# 96 vertices

vn -0.1849 -0.9826 -0.0205
vn -0.9788 0.2043 0.0133
vn -0.4086 -0.9066 0.1052
vn 0.0000 -1.0000 -0.0000
vn 0.2833 -0.9590 0.0055
vn 0.1849 -0.9826 0.0205
vn 0.9788 0.2043 -0.0133
vn 0.4086 -0.9066 -0.1052
vn -0.2833 -0.9590 -0.0055
vn 0.0000 1.0000 -0.0000
vn -0.1916 -0.1390 0.9716
vn 0.1897 -0.1365 0.9723
vn 0.1920 0.0149 0.9813
vn -0.1908 0.0137 0.9815
vn 0.9740 -0.1875 0.1269
vn 0.9767 -0.1788 -0.1190
vn 0.9908 0.0049 -0.1352
vn 0.9913 0.0013 0.1314
vn 0.1916 -0.1390 -0.9716
vn -0.1897 -0.1365 -0.9723
vn -0.1920 0.0149 -0.9813
vn 0.1908 0.0137 -0.9815
vn -0.9740 -0.1875 -0.1269
vn -0.9767 -0.1788 0.1190
vn -0.9908 0.0049 0.1352
vn -0.9913 0.0013 -0.1314
vn 0.3759 0.0026 0.9267
vn 0.3747 -0.1375 0.9169
vn -0.3709 -0.1412 0.9179
vn -0.3783 0.0001 0.9257
vn 0.9669 -0.0086 -0.2551
vn 0.9531 -0.1561 -0.2591
vn -0.3759 0.0026 -0.9267
vn -0.3747 -0.1375 -0.9169
vn 0.9649 -0.0152 0.2623
vn 0.9548 -0.1727 0.2420
vn -0.9531 -0.1561 0.2591
vn -0.9669 -0.0086 0.2551
vn 0.3783 0.0001 -0.9257
vn 0.3709 -0.1412 -0.9179
vn -0.9649 -0.0152 -0.2623
vn -0.9548 -0.1727 -0.2420
vn -0.3852 -0.9222 -0.0356
vn -0.4259 -0.9048 0.0035
vn 0.0941 -0.8664 -0.4905
vn 0.0674 -0.8535 -0.5168
vn -0.0409 -0.8634 -0.5028
vn -0.0855 -0.8576 -0.5072
vn 0.3852 -0.9222 0.0356
vn 0.4259 -0.9048 -0.0035
vn -0.0941 -0.8664 0.4905
vn -0.0674 -0.8535 0.5168
vn 0.0409 -0.8634 0.5028
vn 0.0855 -0.8576 0.5072
vn -0.9383 -0.2735 0.2115
vn -0.9483 -0.3052 0.0866
vn 0.3587 -0.2017 0.9114
vn 0.1702 -0.1982 0.9653
vn -0.3587 -0.2017 -0.9114
vn -0.1702 -0.1982 -0.9653
vn 0.9383 -0.2735 -0.2115
vn 0.9483 -0.3052 -0.0866
vn -0.1750 -0.1937 0.9653
vn -0.3509 -0.1902 0.9169
vn 0.9521 -0.2866 0.1065
vn 0.9564 -0.2328 0.1762
vn -0.9521 -0.2866 -0.1065
vn -0.9564 -0.2328 -0.1762
vn 0.1750 -0.1937 -0.9653
vn 0.3509 -0.1902 -0.9169
vn -0.5075 -0.8566 0.0935
vn 0.1368 -0.8566 0.4975
vn 0.1925 -0.8426 0.5030
vn -0.1368 -0.8566 -0.4975
vn -0.1925 -0.8426 -0.5030
vn 0.5075 -0.8566 -0.0935
vn -0.1615 -0.8525 0.4971
vn -0.1066 -0.8047 0.5840
vn 0.4648 -0.8854 -0.0008
vn -0.4648 -0.8854 0.0008
vn 0.1615 -0.8525 -0.4971
vn 0.1066 -0.8047 -0.5840
vn 0.0522 0.9502 0.3073
vn 0.0419 0.9454 0.3232
vn -0.0235 0.9497 0.3122
vn -0.0449 0.9464 0.3199
vn 0.2719 0.9621 -0.0191
vn 0.2960 0.9552 -0.0023
vn 0.2769 0.9607 -0.0207
vn 0.2980 0.9546 -0.0032
vn -0.0522 0.9502 -0.3073
vn -0.0419 0.9454 -0.3232
vn 0.0235 0.9497 -0.3122
vn 0.0449 0.9464 -0.3199
vn -0.2719 0.9621 0.0191
vn -0.2960 0.9552 0.0023
vn -0.2769 0.9607 0.0207
vn -0.2980 0.9546 0.0032
vn -0.3579 0.2704 0.8938
vn -0.1759 0.3081 0.9349
vn 0.9433 0.2309 0.2385
vn 0.9460 0.3083 0.1003
vn -0.9433 0.2309 -0.2385
vn -0.9460 0.3083 -0.1003
vn 0.3579 0.2704 -0.8938
vn 0.1759 0.3081 -0.9349
vn -0.9414 0.3164 0.1170
vn -0.9491 0.2393 0.2048
vn 0.1815 0.3107 0.9330
vn 0.3458 0.2749 0.8971
vn -0.1815 0.3107 -0.9330
vn -0.3458 0.2749 -0.8971
vn 0.9414 0.3164 -0.1170
vn 0.9491 0.2393 -0.2048
vn 0.1605 0.5057 0.8476
vn -0.1470 0.5152 0.8444
vn 0.8448 0.5282 -0.0854
vn 0.8345 0.5482 0.0547
vn -0.1605 0.5057 -0.8476
vn 0.1470 0.5152 -0.8444
vn -0.8448 0.5282 0.0854
vn -0.8345 0.5482 -0.0547
vn -0.3110 0.4792 0.8207
vn -0.2975 0.9476 0.1161
vn -0.2312 0.9571 0.1746
vn 0.8627 0.4725 0.1804
vn 0.2110 0.9579 0.1949
vn 0.2282 0.9531 0.1990
vn -0.8627 0.4725 -0.1804
vn -0.2110 0.9579 -0.1949
vn -0.2282 0.9531 -0.1990
vn 0.3110 0.4792 -0.8207
vn 0.2975 0.9476 -0.1161
vn 0.2312 0.9571 -0.1746
vn -0.9048 0.4077 0.1227
vn 0.2930 0.4566 0.8401
vn -0.2930 0.4566 -0.8401
vn 0.9048 0.4077 -0.1227
vn 0.0000 0.0000 -1.0000
vn -0.1592 0.0000 -0.9872
vn -0.9855 0.0000 0.1697
vn -1.0000 0.0000 -0.0000
vn -0.9855 0.0000 -0.1697
vn -0.1592 0.0000 0.9872
vn 0.0000 0.0000 1.0000
vn 0.1592 0.0000 0.9872
vn 0.9855 0.0000 -0.1697
vn 1.0000 0.0000 -0.0000
vn 0.9855 0.0000 0.1697
vn 0.1592 0.0000 -0.9872
# 150 vertex normals

vt 0.6639 0.6727 0.0000
vt 0.6639 0.9399 0.0000
vt 0.6600 0.9550 0.0000
vt 0.6681 0.9565 0.0000
vt 0.9495 0.9565 0.0000
vt 0.9575 0.9550 0.0000
vt 0.9537 0.9399 0.0000
vt 0.9495 0.6560 0.0000
vt 0.9537 0.6727 0.0000
vt 0.9575 0.6575 0.0000
vt 0.6600 0.6575 0.0000
vt 0.6681 0.6560 0.0000
vt 0.0303 0.0773 0.0000
vt 0.3718 0.0773 0.0000
vt 0.3794 0.0785 0.0000
vt 0.3772 0.0916 0.0000
vt 0.3772 0.4182 0.0000
vt 0.3794 0.4313 0.0000
vt 0.3718 0.4325 0.0000
vt 0.0250 0.4182 0.0000
vt 0.0303 0.4325 0.0000
vt 0.0227 0.4313 0.0000
vt 0.0227 0.0785 0.0000
vt 0.0250 0.0916 0.0000
vt 0.7405 0.0453 0.0000
vt 0.9387 0.0453 0.0000
vt 0.9645 0.4591 0.0000
vt 0.7145 0.4590 0.0000
vt 0.3671 0.5403 0.0000
vt 0.5516 0.5404 0.0000
vt 0.5805 0.9596 0.0000
vt 0.3380 0.9595 0.0000
vt 0.4523 0.0431 0.0000
vt 0.6504 0.0431 0.0000
vt 0.6763 0.4568 0.0000
vt 0.4263 0.4568 0.0000
vt 0.0607 0.5376 0.0000
vt 0.2452 0.5377 0.0000
vt 0.2741 0.9569 0.0000
vt 0.0316 0.9568 0.0000
vt 0.9796 0.4592 0.0000
vt 0.9537 0.0444 0.0000
vt 0.7255 0.0443 0.0000
vt 0.6994 0.4591 0.0000
vt 0.5984 0.9597 0.0000
vt 0.5695 0.5396 0.0000
vt 0.6914 0.4570 0.0000
vt 0.6655 0.0422 0.0000
vt 0.3201 0.9596 0.0000
vt 0.3493 0.5395 0.0000
vt 0.2631 0.5368 0.0000
vt 0.2920 0.9569 0.0000
vt 0.4112 0.4569 0.0000
vt 0.4373 0.0421 0.0000
vt 0.0137 0.9568 0.0000
vt 0.0429 0.5367 0.0000
vt 0.0612 0.5183 0.0000
vt 0.0623 0.5023 0.0000
vt 0.2436 0.5023 0.0000
vt 0.2447 0.5183 0.0000
vt 0.4544 0.0246 0.0000
vt 0.4563 0.0126 0.0000
vt 0.6464 0.0126 0.0000
vt 0.6484 0.0247 0.0000
vt 0.3676 0.5210 0.0000
vt 0.3687 0.5050 0.0000
vt 0.5500 0.5050 0.0000
vt 0.5511 0.5211 0.0000
vt 0.7426 0.0269 0.0000
vt 0.7446 0.0148 0.0000
vt 0.9347 0.0149 0.0000
vt 0.9366 0.0269 0.0000
vt 0.2606 0.5172 0.0000
vt 0.9491 0.0253 0.0000
vt 0.6609 0.0230 0.0000
vt 0.5670 0.5199 0.0000
vt 0.7302 0.0251 0.0000
vt 0.3518 0.5198 0.0000
vt 0.0454 0.5170 0.0000
vt 0.4419 0.0229 0.0000
vt 0.2542 0.5053 0.0000
vt 0.9409 0.0146 0.0000
vt 0.6526 0.0124 0.0000
vt 0.5606 0.5080 0.0000
vt 0.7388 0.0146 0.0000
vt 0.3582 0.5079 0.0000
vt 0.0518 0.5051 0.0000
vt 0.4505 0.0124 0.0000
vt 0.9651 0.4819 0.0000
vt 0.9643 0.4906 0.0000
vt 0.7148 0.4906 0.0000
vt 0.7140 0.4818 0.0000
vt 0.5798 0.9830 0.0000
vt 0.5789 0.9932 0.0000
vt 0.3396 0.9931 0.0000
vt 0.3387 0.9829 0.0000
vt 0.6768 0.4796 0.0000
vt 0.6760 0.4884 0.0000
vt 0.4265 0.4883 0.0000
vt 0.4257 0.4795 0.0000
vt 0.2734 0.9803 0.0000
vt 0.2725 0.9904 0.0000
vt 0.0332 0.9904 0.0000
vt 0.0323 0.9802 0.0000
vt 0.6999 0.4735 0.0000
vt 0.7140 0.4725 0.0000
vt 0.3213 0.9738 0.0000
vt 0.3383 0.9732 0.0000
vt 0.0149 0.9711 0.0000
vt 0.0319 0.9704 0.0000
vt 0.4117 0.4713 0.0000
vt 0.4257 0.4702 0.0000
vt 0.2738 0.9705 0.0000
vt 0.2907 0.9712 0.0000
vt 0.9651 0.4725 0.0000
vt 0.9791 0.4737 0.0000
vt 0.6768 0.4703 0.0000
vt 0.6908 0.4714 0.0000
vt 0.5802 0.9732 0.0000
vt 0.5971 0.9740 0.0000
vt 0.7029 0.4832 0.0000
vt 0.7084 0.4908 0.0000
vt 0.3244 0.9833 0.0000
vt 0.3297 0.9909 0.0000
vt 0.0180 0.9805 0.0000
vt 0.0233 0.9882 0.0000
vt 0.4147 0.4809 0.0000
vt 0.4202 0.4885 0.0000
vt 0.2876 0.9807 0.0000
vt 0.2823 0.9882 0.0000
vt 0.9760 0.4834 0.0000
vt 0.9703 0.4908 0.0000
vt 0.6877 0.4811 0.0000
vt 0.6821 0.4885 0.0000
vt 0.5940 0.9835 0.0000
vt 0.5887 0.9909 0.0000
# 136 texture coords

g Box
usemtl 01___Default
s 1
f 1/1/1 2/2/2 3/3/3 4/4/4 
f 4/4/4 5/5/4 6/6/5 7/7/6 
f 1/1/1 4/4/4 7/7/6 8/8/4 
f 7/7/6 9/9/7 10/10/8 8/8/4 
f 11/11/9 1/1/1 8/8/4 12/12/4 
f 13/13/10 14/14/10 15/15/10 16/16/10 
f 16/16/10 17/17/4 18/18/10 19/19/10 
f 13/13/10 16/16/10 19/19/10 20/20/10 
f 19/19/10 21/21/10 22/22/10 20/20/10 
f 23/23/10 13/13/10 20/20/10 24/24/4 
s 2
f 25/25/11 26/26/12 27/27/13 28/28/14 
s 4
f 29/29/15 30/30/16 31/31/17 32/32/18 
s 2
f 33/33/19 34/34/20 35/35/21 36/36/22 
s 4
f 37/37/23 38/38/24 39/39/25 40/40/26 
s 2
f 41/41/27 27/27/13 26/26/12 42/42/28 
f 43/43/29 25/25/11 28/28/14 44/44/30 
s 4
f 45/45/31 31/31/17 30/30/16 46/46/32 
s 2
f 47/47/33 35/35/21 34/34/20 48/48/34 
s 4
f 32/32/18 41/49/35 42/50/36 29/29/15 
f 38/38/24 43/51/37 44/52/38 39/39/25 
s 2
f 36/36/22 45/53/39 46/54/40 33/33/19 
s 4
f 40/40/26 47/55/41 48/56/42 37/37/23 
s 1
f 49/57/43 2/58/2 1/59/1 50/60/44 
s 8
f 51/61/45 5/62/46 4/63/47 52/64/48 
s 1
f 53/65/49 9/66/7 7/67/6 54/68/50 
s 8
f 55/69/51 12/70/52 8/71/53 56/72/54 
s 4
f 57/73/55 43/51/37 38/38/24 50/60/56 
s 2
f 58/74/57 42/42/28 26/26/12 56/72/58 
f 59/75/59 48/48/34 34/34/20 52/64/60 
s 4
f 60/76/61 46/46/32 30/30/16 54/68/62 
s 2
f 55/69/63 25/25/11 43/43/29 57/77/64 
s 4
f 53/65/65 29/29/15 42/50/36 58/78/66 
f 49/57/67 37/37/23 48/56/42 59/79/68 
s 2
f 51/61/69 33/33/19 46/54/40 60/80/70 
s 4
f 37/37/23 49/57/67 50/60/56 38/38/24 
s 2
f 33/33/19 51/61/69 52/64/60 34/34/20 
s 4
f 29/29/15 53/65/65 54/68/62 30/30/16 
s 2
f 25/25/11 55/69/63 56/72/58 26/26/12 
s 1
f 11/81/9 57/73/71 50/60/44 1/59/1 
s 8
f 10/82/72 58/74/73 56/72/54 8/71/53 
f 3/83/74 59/75/75 52/64/48 4/63/47 
s 1
f 6/84/5 60/76/76 54/68/50 7/67/6 
s 8
f 12/70/52 55/69/51 57/77/77 11/85/78 
s 1
f 9/66/7 53/65/49 58/78/79 10/86/8 
f 2/58/2 49/57/43 59/79/80 3/87/3 
s 8
f 5/62/46 51/61/45 60/80/81 6/88/82 
s 1
f 61/89/83 62/90/84 63/91/85 64/92/86 
f 65/93/87 66/94/88 67/95/89 68/96/90 
f 69/97/91 70/98/92 71/99/93 72/100/94 
f 73/101/95 74/102/96 75/103/97 76/104/98 
s 2
f 77/105/99 44/44/30 28/28/14 78/106/100 
s 4
f 79/107/101 41/49/35 32/32/18 80/108/102 
f 81/109/103 47/55/41 40/40/26 82/110/104 
s 2
f 83/111/105 45/53/39 36/36/22 84/112/106 
s 4
f 85/113/107 39/39/25 44/52/38 77/114/108 
s 2
f 86/115/109 27/27/13 41/41/27 79/116/110 
f 87/117/111 35/35/21 47/47/33 81/118/112 
s 4
f 88/119/113 31/31/17 45/45/31 83/120/114 
s 2
f 86/115/109 61/89/115 64/92/116 78/106/100 
f 27/27/13 86/115/109 78/106/100 28/28/14 
s 4
f 88/119/113 65/93/117 68/96/118 80/108/102 
f 31/31/17 88/119/113 80/108/102 32/32/18 
s 2
f 87/117/111 69/97/119 72/100/120 84/112/106 
f 35/35/21 87/117/111 84/112/106 36/36/22 
s 4
f 85/113/107 73/101/121 76/104/122 82/110/104 
f 39/39/25 85/113/107 82/110/104 40/40/26 
s 2
f 89/121/123 77/105/99 78/106/100 64/92/116 
s 1
f 90/122/124 89/121/125 64/92/86 63/91/85 
s 4
f 91/123/126 79/107/101 80/108/102 68/96/118 
s 1
f 92/124/127 91/123/128 68/96/90 67/95/89 
s 4
f 93/125/129 81/109/103 82/110/104 76/104/122 
s 1
f 94/126/130 93/125/131 76/104/98 75/103/97 
s 2
f 95/127/132 83/111/105 84/112/106 72/100/120 
s 1
f 96/128/133 95/127/134 72/100/94 71/99/93 
s 4
f 73/101/121 85/113/107 77/114/108 89/129/135 
s 1
f 74/102/96 73/101/95 89/129/125 90/130/124 
s 2
f 61/89/115 86/115/109 79/116/110 91/131/136 
s 1
f 62/90/84 61/89/83 91/131/128 92/132/127 
s 2
f 69/97/119 87/117/111 81/118/112 93/133/137 
s 1
f 70/98/92 69/97/91 93/133/131 94/134/130 
s 4
f 65/93/117 88/119/113 83/120/114 95/135/138 
s 1
f 66/94/88 65/93/87 95/135/134 96/136/133 
s off
f 63/13/139 62/14/139 14/14/139 13/13/139 
f 62/14/140 92/15/140 15/15/140 14/14/140 
f 92/15/141 67/16/141 16/16/141 15/15/141 
f 67/16/142 66/17/142 17/17/142 16/16/142 
f 66/17/143 96/18/143 18/18/143 17/17/143 
f 96/18/144 71/19/144 19/19/144 18/18/144 
f 71/19/145 70/21/145 21/21/145 19/19/145 
f 70/21/146 94/22/146 22/22/146 21/21/146 
f 94/22/147 75/20/147 20/20/147 22/22/147 
f 75/20/148 74/24/148 24/24/148 20/20/148 
f 74/24/149 90/23/149 23/23/149 24/24/149 
f 90/23/150 63/13/150 13/13/150 23/23/150 
# 94 polygons

